<?xml version="1.0" standalone="no"?><!DOCTYPE svg PUBLIC "-//W3C//DTD SVG 1.1//EN" "http://www.w3.org/Graphics/SVG/1.1/DTD/svg11.dtd"><svg t="1603362693998" class="icon" viewBox="0 0 1024 1024" version="1.1" xmlns="http://www.w3.org/2000/svg" p-id="795" xmlns:xlink="http://www.w3.org/1999/xlink" width="200" height="200"><defs><style type="text/css"></style></defs><path d="M682.77333333 34.34666667c27.41333333 0 54.82666667 6.82666667 75.41333334 13.76C840.53333333 82.34666667 888.53333333 157.86666667 888.53333333 247.04c0 54.82666667-20.58666667 109.76-61.76 150.93333333L442.66666667 788.90666667c-13.76 13.76-27.41333333 20.58666667-41.17333334 27.41333333-13.76 6.82666667-27.41333333 6.82666667-48 6.82666667-13.76 0-34.34666667 0-48-6.82666667-13.76-6.82666667-27.41333333-13.76-34.34666666-27.41333333-13.76-13.76-20.58666667-27.41333333-27.41333334-41.17333334-6.82666667-13.76-6.82666667-34.24-6.82666666-48 0-34.34666667 13.76-68.58666667 34.34666666-89.17333333l349.86666667-363.52c6.82666667-6.82666667 20.58666667-13.76 27.41333333-13.76 13.76 0 27.41333333 6.82666667 34.34666667 13.76 6.82666667 6.82666667 13.76 20.58666667 13.76 27.41333333-6.82666667 13.76-6.82666667 20.58666667-13.76 34.34666667L326.08 665.38666667c-6.82666667 6.82666667-13.76 20.58666667-13.76 34.34666666 0 20.58666667 20.58666667 41.17333333 41.17333333 41.17333334 13.76 0 20.58666667-6.82666667 27.41333334-13.76l384.10666666-390.93333334c27.41333333-27.41333333 34.24-54.82666667 34.24-89.17333333 0-34.34666667-13.76-61.76-34.24-89.17333333-20.58666667-27.41333333-48-41.17333333-82.34666666-41.17333334s-68.58666667 13.76-89.17333334 41.17333334l-384 390.93333333c-20.58666667 20.58666667-34.34666667 41.17333333-48 68.58666667-20.58666667 48-20.58666667 109.76 0 157.76 13.76 27.41333333 27.41333333 48 48 68.58666666 41.17333333 41.17333333 89.17333333 61.76 144 61.76 54.82666667 0 109.76-20.58666667 144-61.76L888.53333333 459.62666667c6.82666667-13.76 13.76-13.76 27.41333334-13.76 13.76 0 20.58666667 6.82666667 27.41333333 13.76 6.82666667 6.82666667 13.76 13.76 13.76 27.41333333s-6.82666667 20.58666667-13.76 27.41333333L559.25333333 905.49333333c-27.41333333 27.41333333-61.76 48-96 68.58666667-34.34666667 13.76-68.58666667 20.58666667-109.76 20.58666667-41.17333333 0-75.41333333-6.82666667-109.76-20.58666667s-68.58666667-34.34666667-96-68.58666667c-27.41333333-27.41333333-48-61.76-61.76-96-13.65333333-34.34666667-20.48-75.52-20.48-109.76 0-41.17333333 6.82666667-75.41333333 20.58666667-116.58666666 13.76-34.34666667 34.34666667-68.58666667 61.76-96l384.10666667-390.93333334c41.06666667-41.28 95.89333333-61.86666667 150.82666666-61.86666666z m0 0" p-id="796"></path></svg>