<?xml version="1.0" standalone="no"?><!DOCTYPE svg PUBLIC "-//W3C//DTD SVG 1.1//EN" "http://www.w3.org/Graphics/SVG/1.1/DTD/svg11.dtd"><svg t="1617784480678" class="icon" viewBox="0 0 1024 1024" version="1.1" xmlns="http://www.w3.org/2000/svg" p-id="758" xmlns:xlink="http://www.w3.org/1999/xlink" width="200" height="200"><defs><style type="text/css"></style></defs><path d="M879.30365893 58.80804187H146.0771819c-70.1467138 0-127.03735571 56.89064192-127.03735573 127.03735573v600.66575802c-1.65700898 6.62803595-1.65700898 12.97990373 0 19.33177152v32.58784343c0 70.1467138 56.89064192 127.03735571 127.03735573 127.03735571h733.22647703c70.1467138 0 127.03735571-56.89064192 127.03735573-127.03735571V185.8453976c0-70.1467138-56.89064192-127.03735571-127.03735573-127.03735573z m-733.22647703 77.3270861h733.22647703c27.3406483 0 49.71026963 22.36962133 49.71026964 49.71026963v482.46578357c-28.72148912-38.9397112-63.51867787-81.46960857-99.69670743-115.16212464-21.54111683-20.16027601-48.3294288-28.44532095-77.60325426-24.30279849-46.12008349 6.62803595-96.65885762 45.01541083-154.37800402 117.0953018-13.80840823 17.12242621-26.23597565 34.24485242-36.45419772 48.88176514-50.81494228-70.1467138-150.78781787-199.66958302-235.5714444-259.32190658-25.13130297-17.67476253-53.30045577-21.817285-82.0219449-12.4275674-31.2070026 10.21822208-61.5855007 36.7303659-92.51633515 80.91727223-17.9509307 25.40747114-36.17802957 56.89064192-54.68129659 93.89717597V185.8453976c0.27616816-27.61681646 22.36962133-49.71026963 49.9864378-49.71026963z" p-id="759"></path><path d="M677.70089876 322.54863908a86.99297185 86.99297185 0 1 0 173.98594371 0 86.99297185 86.99297185 0 1 0-173.98594371 0z" p-id="760"></path></svg>