<?xml version="1.0" standalone="no"?><!DOCTYPE svg PUBLIC "-//W3C//DTD SVG 1.1//EN" "http://www.w3.org/Graphics/SVG/1.1/DTD/svg11.dtd"><svg t="1603288073475" class="icon" viewBox="0 0 1024 1024" version="1.1" xmlns="http://www.w3.org/2000/svg" p-id="765" xmlns:xlink="http://www.w3.org/1999/xlink" width="200" height="200"><defs><style type="text/css"></style></defs><path d="M512 729.76487402A218.61220837 218.61220837 0 1 0 294.51757037 512a218.04731961 218.04731961 0 0 0 217.48242963 217.76487402zM3.59951504 512a571.66810075 571.66810075 0 0 1 10.16800992-107.61143606 190.65018171 190.65018171 0 0 0 146.30636142-98.57320491 207.03197533 207.03197533 0 0 0 7.34356244-185.84862234A503.03403562 503.03403562 0 0 1 358.06763054 3.59951504a185.84862113 185.84862113 0 0 0 313.23118827 0 504.44625874 504.44625874 0 0 1 189.80284734 117.77944599 205.90219659 205.90219659 0 0 0 9.03823117 184.436398 189.80284735 189.80284735 0 0 0 141.22235647 95.74875743 560.65275646 560.65275646 0 0 1-3.95422622 234.42911323 192.34485043 192.34485043 0 0 0-136.70324148 98.00831492 205.90219659 205.90219659 0 0 0-14.12223491 169.46682872A505.01114873 505.01114873 0 0 1 659.71858576 1020.40048496a185.28373236 185.28373236 0 0 0-292.89516844 0A500.20958815 500.20958815 0 0 1 173.06634377 905.16304206a206.46708534 206.46708534 0 0 0-12.99245739-172.57372058 190.93262609 190.93262609 0 0 0-141.22235646-98.57320489A559.80542331 559.80542331 0 0 1 3.59951504 512z" p-id="766"></path></svg>